<svg xmlns="http://www.w3.org/2000/svg" width="959" height="959" viewBox="0 0 959 959">
  <metadata><?xpacket begin="﻿" id="W5M0MpCehiHzreSzNTczkc9d"?>
<x:xmpmeta xmlns:x="adobe:ns:meta/" x:xmptk="Adobe XMP Core 5.6-c142 79.160924, 2017/07/13-01:06:39        ">
   <rdf:RDF xmlns:rdf="http://www.w3.org/1999/02/22-rdf-syntax-ns#">
      <rdf:Description rdf:about=""/>
   </rdf:RDF>
</x:xmpmeta>
                                                                                                    
                                                                                                    
                                                                                                    
                                                                                                    
                                                                                                    
                                                                                                    
                                                                                                    
                                                                                                    
                                                                                                    
                                                                                                    
                                                                                                    
                                                                                                    
                                                                                                    
                                                                                                    
                                                                                                    
                                                                                                    
                                                                                                    
                                                                                                    
                                                                                                    
                                                                                                    
                           
<?xpacket end="w"?></metadata>
<defs>
    <style>
      .cls-1 {
        fill: #7472c0;
      }

      .cls-2 {
        fill: #f6b220;
      }

      .cls-3 {
        fill: #4596ca;
      }

      .cls-4 {
        fill: #fff;
        fill-rule: evenodd;
      }
    </style>
  </defs>
  <rect id="Rounded_Rectangle_3" data-name="Rounded Rectangle 3" class="cls-1" width="959" height="959" rx="200" ry="200"/>
  <rect id="Rounded_Rectangle_3_copy" data-name="Rounded Rectangle 3 copy" class="cls-2" width="959" height="959" rx="200" ry="200"/>
  <rect id="Rounded_Rectangle_3_copy_2" data-name="Rounded Rectangle 3 copy 2" class="cls-3" width="959" height="959" rx="200" ry="200"/>
  <path id="Bu" class="cls-4" d="M99.5,738H277.25c104.25,0,166.5-43.5,187.5-143.25l1.5-6c12.75-62.25-8.25-99-55.5-117,48-12,87-54,100.5-116.25l1.5-7.5c21-98.25-54.75-138.75-159-138.75H211.25ZM395.75,577.5l-2.25,9.75c-12.75,62.25-60.75,80.25-119.25,80.25h-87l36-166.5h94.5C371.75,501,407.75,522,395.75,577.5Zm-126-297H351.5c59.25,0,99,15,86.25,75L435.5,366c-11.25,52.5-48.75,76.5-99.75,76.5H235.25Zm282.657,82.83-51.334,240c-18,85.334,37.334,141.335,124.668,141.335,85.334,0,140-56,158-141.335l51.334-240H772.408L719.741,612c-10.666,48-48,76-92,76-42,0-76.668-25.334-66-76L614.407,363.33h-62Z"/>
</svg>
