<svg xmlns="http://www.w3.org/2000/svg" width="959" height="959" viewBox="0 0 959 959">
  <metadata><?xpacket begin="﻿" id="W5M0MpCehiHzreSzNTczkc9d"?>
<x:xmpmeta xmlns:x="adobe:ns:meta/" x:xmptk="Adobe XMP Core 5.6-c142 79.160924, 2017/07/13-01:06:39        ">
   <rdf:RDF xmlns:rdf="http://www.w3.org/1999/02/22-rdf-syntax-ns#">
      <rdf:Description rdf:about=""/>
   </rdf:RDF>
</x:xmpmeta>
                                                                                                    
                                                                                                    
                                                                                                    
                                                                                                    
                                                                                                    
                                                                                                    
                                                                                                    
                                                                                                    
                                                                                                    
                                                                                                    
                                                                                                    
                                                                                                    
                                                                                                    
                                                                                                    
                                                                                                    
                                                                                                    
                                                                                                    
                                                                                                    
                                                                                                    
                                                                                                    
                           
<?xpacket end="w"?></metadata>
<defs>
    <style>
      .cls-1 {
        fill: #7472c0;
      }

      .cls-2 {
        fill: #f6b220;
      }

      .cls-3 {
        fill: #fff;
        fill-rule: evenodd;
      }
    </style>
  </defs>
  <rect id="Rounded_Rectangle_3" data-name="Rounded Rectangle 3" class="cls-1" width="959" height="959" rx="200" ry="200"/>
  <rect id="Rounded_Rectangle_3_copy" data-name="Rounded Rectangle 3 copy" class="cls-2" width="959" height="959" rx="200" ry="200"/>
  <path id="Mb" class="cls-3" d="M323.5,646.5l179.25-276-78,367.5h73.5L610,209.25H534.25L314.5,550.5l-75-341.25H171.25L59.5,738H133l77.25-366L271,646.5h52.5ZM735.074,744c75.334,0,122.667-51.334,142.667-146.668l20-93.334c20-93.334-26-145.334-101.335-145.334-56.667,0-83.334,26-99.334,50.667L733.74,236.663h-62L565.739,738h58.667l10.667-51.334C644.406,718,674.406,744,735.074,744ZM715.74,692.666c-50.667,0-71.334-36-56.667-103.334l16.667-80c14-64.668,50.667-98.668,100-98.668,52.667,0,71.333,37.334,57.333,102l-16,76.667C803.074,656,767.741,692.666,715.74,692.666Z"/>
</svg>
