<svg xmlns="http://www.w3.org/2000/svg" width="959" height="959" viewBox="0 0 959 959">
  <metadata><?xpacket begin="﻿" id="W5M0MpCehiHzreSzNTczkc9d"?>
<x:xmpmeta xmlns:x="adobe:ns:meta/" x:xmptk="Adobe XMP Core 5.6-c142 79.160924, 2017/07/13-01:06:39        ">
   <rdf:RDF xmlns:rdf="http://www.w3.org/1999/02/22-rdf-syntax-ns#">
      <rdf:Description rdf:about=""/>
   </rdf:RDF>
</x:xmpmeta>
                                                                                                    
                                                                                                    
                                                                                                    
                                                                                                    
                                                                                                    
                                                                                                    
                                                                                                    
                                                                                                    
                                                                                                    
                                                                                                    
                                                                                                    
                                                                                                    
                                                                                                    
                                                                                                    
                                                                                                    
                                                                                                    
                                                                                                    
                                                                                                    
                                                                                                    
                                                                                                    
                           
<?xpacket end="w"?></metadata>
<defs>
    <style>
      .cls-1 {
        fill: #7472c0;
      }

      .cls-2 {
        fill: #fff;
        fill-rule: evenodd;
      }
    </style>
  </defs>
  <rect id="Rounded_Rectangle_3" data-name="Rounded Rectangle 3" class="cls-1" width="959" height="959" rx="200" ry="200"/>
  <path id="Tb_copy_2" data-name="Tb copy 2" class="cls-2" d="M284.75,738L381.5,280.5H509.75l15-71.25H195.5l-15,71.25H308L211.25,738h73.5Zm331.329,6c75.334,0,122.668-51.334,142.668-146.668l20-93.334c20-93.334-26-145.334-101.334-145.334-56.667,0-83.334,26-99.334,50.667l36.667-172.668h-62L446.745,738h58.667l10.667-51.334C525.412,718,555.412,744,616.079,744Zm-19.333-51.334c-50.667,0-71.334-36-56.667-103.334l16.667-80c14-64.668,50.667-98.668,100-98.668,52.667,0,71.334,37.334,57.334,102l-16,76.667C684.08,656,648.746,692.666,596.746,692.666Z"/>
</svg>
